<?xml version="1.0" encoding="UTF-8" standalone="no"?> <svg width="64" height="64" viewBox="0 0 64 64" fill="none" xmlns="http://www.w3.org/2000/svg">
<path d="M29.423 8.71101C28.6729 7.96113 27.6556 7.53987 26.595 7.53987C25.5343 7.53987 24.5171 7.96113 23.767 8.71101C23.6166 8.86648 23.4788 9.03368 23.355 9.21101L22.649 7.70001C21.8646 6.01787 20.4443 4.7161 18.7003 4.08095C16.9563 3.4458 15.0314 3.52928 13.349 4.31301L7.90799 6.84701C6.22805 7.63382 4.92848 9.05444 4.294 10.7976C3.65951 12.5408 3.74186 14.4644 4.52299 16.147L5.21199 17.625C5.26528 17.7474 5.34254 17.8579 5.4392 17.9499C5.53586 18.042 5.64997 18.1137 5.77481 18.161C5.89964 18.2082 6.03268 18.23 6.16607 18.2251C6.29945 18.2201 6.4305 18.1885 6.55147 18.1321C6.67244 18.0756 6.7809 17.9956 6.87044 17.8966C6.95998 17.7976 7.0288 17.6817 7.07284 17.5557C7.11688 17.4297 7.13524 17.2961 7.12685 17.1629C7.11846 17.0297 7.08349 16.8995 7.02399 16.78L6.33599 15.3C5.77863 14.0985 5.72016 12.7251 6.17337 11.4805C6.62657 10.236 7.55453 9.22177 8.75399 8.66001L14.192 6.12401C15.2366 5.63683 16.4174 5.5255 17.5346 5.80886C18.6518 6.09222 19.6369 6.75287 20.323 7.67901L14.069 10.6C13.6485 10.7956 13.2796 11.0869 12.9921 11.4507C12.7045 11.8146 12.5062 12.2407 12.413 12.695C11.8171 12.7596 11.2478 12.9764 10.76 13.3245C10.2721 13.6727 9.88192 14.1405 9.62705 14.6829C9.37218 15.2254 9.26115 15.8244 9.30463 16.4222C9.34811 17.0199 9.54464 17.5965 9.87533 18.0964C10.206 18.5963 10.6597 19.0027 11.1929 19.2766C11.726 19.5505 12.3207 19.6826 12.9196 19.6602C13.5186 19.6379 14.1017 19.4619 14.613 19.1491C15.1243 18.8362 15.5465 18.3971 15.839 17.874C16.7779 18.3545 17.8144 18.6133 18.8689 18.6306C19.9234 18.648 20.9678 18.4233 21.922 17.974L24.549 16.749C24.8149 17.8685 24.6874 19.0454 24.1879 20.0819C23.6884 21.1185 22.8473 21.9515 21.806 22.441L16.347 24.986C15.1459 25.5401 13.7742 25.5962 12.5319 25.142C11.2895 24.6877 10.2775 23.7602 9.71699 22.562L8.71699 20.414C8.66151 20.295 8.58312 20.188 8.4863 20.0993C8.38949 20.0105 8.27614 19.9417 8.15273 19.8968C8.02932 19.8518 7.89827 19.8316 7.76705 19.8373C7.63584 19.843 7.50703 19.8745 7.38799 19.93C7.26895 19.9855 7.162 20.0639 7.07325 20.1607C6.9845 20.2575 6.91569 20.3709 6.87075 20.4943C6.8258 20.6177 6.80561 20.7487 6.81131 20.8799C6.81701 21.0112 6.84851 21.14 6.90399 21.259L7.90399 23.407C8.32212 24.3029 8.92698 25.099 9.67799 25.742L3.73199 28.508C3.37492 28.6745 3.05413 28.9097 2.78796 29.2002C2.52179 29.4907 2.31544 29.8308 2.18071 30.201C2.04597 30.5712 1.98547 30.9644 2.00268 31.358C2.01989 31.7516 2.11446 32.138 2.28099 32.495L9.46599 47.9C9.80244 48.621 10.4115 49.1788 11.1592 49.4507C11.9069 49.7226 12.732 49.6864 13.453 49.35L19.908 46.341C21.0763 46.8671 22.3427 47.1398 23.624 47.141C24.8916 47.1389 26.1445 46.8683 27.3 46.347L32.768 46.825C32.8989 46.8365 33.0262 46.8736 33.1427 46.9343C33.2593 46.9949 33.3627 47.078 33.4471 47.1787C33.5315 47.2793 33.5953 47.3956 33.6347 47.521C33.6742 47.6463 33.6885 47.7781 33.677 47.909L32.96 56.101C32.9455 56.2334 32.9576 56.3674 32.9956 56.4951C33.0336 56.6228 33.0967 56.7415 33.1813 56.8445C33.2658 56.9474 33.3701 57.0324 33.4879 57.0945C33.6058 57.1566 33.7348 57.1946 33.8675 57.2061C34.0002 57.2176 34.1339 57.2025 34.2607 57.1617C34.3875 57.1208 34.5048 57.055 34.6059 56.9682C34.7069 56.8814 34.7895 56.7753 34.849 56.656C34.9084 56.5368 34.9434 56.4069 34.952 56.274L35.059 55.056L42.032 55.666C42.4245 55.7002 42.8065 55.8115 43.156 55.9933C43.5056 56.1752 43.8159 56.4241 44.0692 56.7259C44.3225 57.0277 44.5139 57.3765 44.6325 57.7523C44.751 58.128 44.7943 58.5235 44.76 58.916L44.672 59.916L33.714 58.957C33.5817 58.9427 33.4479 58.955 33.3205 58.9931C33.193 59.0312 33.0744 59.0943 32.9716 59.1788C32.8689 59.2633 32.784 59.3674 32.722 59.4851C32.66 59.6028 32.6221 59.7317 32.6105 59.8642C32.5989 59.9968 32.6139 60.1303 32.6546 60.2569C32.6952 60.3836 32.7608 60.5009 32.8473 60.6019C32.9339 60.7029 33.0397 60.7857 33.1587 60.8453C33.2776 60.9049 33.4073 60.9401 33.54 60.949L45.494 62C45.5233 62.0015 45.5527 62.0015 45.582 62C45.8319 61.9997 46.0727 61.9058 46.2569 61.7368C46.441 61.5678 46.5552 61.336 46.577 61.087L46.752 59.095C46.8524 57.9469 46.5532 56.7993 45.9048 55.8465C45.2565 54.8936 44.2988 54.194 43.194 53.866L43.812 46.792C44.0404 44.2254 43.2591 41.6708 41.634 39.671L42.825 39.115C42.9435 39.0598 43.0719 39.0287 43.2025 39.0234C43.3332 39.0181 43.4636 39.0387 43.5862 39.0841C43.7088 39.1295 43.8213 39.1987 43.917 39.2878C44.0128 39.3768 44.0899 39.484 44.144 39.603L49.218 50.477C49.2983 50.6496 49.4263 50.7957 49.5868 50.8981C49.7472 51.0004 49.9336 51.0549 50.124 51.055C50.2701 51.0547 50.4145 51.0227 50.547 50.961L61.423 45.889C61.6633 45.7768 61.8491 45.5738 61.9397 45.3245C62.0303 45.0753 62.0181 44.8003 61.906 44.56L61.061 42.748C60.4995 41.5471 59.4844 40.618 58.2386 40.1647C56.9928 39.7113 55.618 39.7708 54.416 40.33L48.071 43.288L45.958 38.762C45.7936 38.4037 45.56 38.0815 45.2706 37.8139C44.9812 37.5463 44.6417 37.3386 44.2717 37.2027C43.9017 37.0668 43.5084 37.0054 43.1146 37.0221C42.7208 37.0388 42.3342 37.1333 41.977 37.3L26.569 44.493C24.8859 45.2739 22.9619 45.3556 21.2186 44.7204C19.4754 44.0851 18.0551 42.7847 17.269 41.104L16.718 39.934C16.6637 39.8126 16.5858 39.7032 16.4888 39.6122C16.3917 39.5212 16.2775 39.4506 16.1528 39.4043C16.0281 39.358 15.8954 39.3371 15.7625 39.3427C15.6296 39.3484 15.4992 39.3805 15.3788 39.4371C15.2585 39.4938 15.1507 39.5739 15.0617 39.6728C14.9727 39.7717 14.9043 39.8873 14.8606 40.0129C14.8168 40.1385 14.7986 40.2716 14.8069 40.4043C14.8152 40.5371 14.8499 40.6668 14.909 40.786L15.457 41.951C16.0209 43.1635 16.8504 44.2336 17.884 45.082L12.607 47.54C12.488 47.5955 12.3591 47.627 12.2279 47.6327C12.0967 47.6384 11.9656 47.6182 11.8422 47.5733C11.7188 47.5284 11.6055 47.4595 11.5087 47.3708C11.4118 47.282 11.3335 47.1751 11.278 47.056L9.16499 42.525L10.978 41.68C11.2184 41.568 11.4045 41.365 11.4952 41.1157C11.586 40.8665 11.574 40.5914 11.462 40.351C11.4065 40.232 11.3281 40.125 11.2313 40.0363C11.1345 39.9475 11.0211 39.8787 10.8977 39.8338C10.6485 39.743 10.3734 39.755 10.133 39.867L8.31999 40.713L7.47499 38.9L12.007 36.787C12.1988 36.6956 12.3561 36.545 12.4556 36.3574C12.5552 36.1697 12.5918 35.955 12.56 35.745L13.214 37.152C13.2666 37.2754 13.3434 37.3869 13.44 37.4799C13.5366 37.5729 13.6508 37.6456 13.776 37.6936C13.9013 37.7416 14.0348 37.7639 14.1688 37.7592C14.3029 37.7545 14.4345 37.7229 14.5561 37.6663C14.6776 37.6097 14.7866 37.5292 14.8764 37.4296C14.9662 37.3301 15.0351 37.2135 15.0789 37.0867C15.1228 36.96 15.1407 36.8258 15.1316 36.692C15.1225 36.5582 15.0866 36.4276 15.026 36.308L13.887 33.858C13.6082 33.2629 13.4494 32.6186 13.4198 31.9621C13.3902 31.3055 13.4903 30.6496 13.7144 30.0318C13.9385 29.4139 14.2822 28.8464 14.7259 28.3615C15.1696 27.8766 15.7045 27.484 16.3 27.206L17.179 26.796L17.204 26.786L22.641 24.251L22.656 24.243L23.55 23.826C24.3497 23.458 25.233 23.3099 26.109 23.397C25.6675 23.6636 25.3023 24.0396 25.0485 24.4885C24.7946 24.9375 24.6608 25.4443 24.66 25.96C24.6571 26.3984 24.7532 26.8318 24.941 27.228C25.105 27.5867 25.3385 27.9093 25.628 28.1771C25.9175 28.4449 26.2573 28.6526 26.6277 28.7882C26.998 28.9238 27.3916 28.9846 27.7856 28.967C28.1796 28.9495 28.5662 28.854 28.923 28.686L30.901 27.762L31.301 28.615L28.601 31.315L25.772 28.486C25.0493 27.768 24.0799 27.3528 23.0615 27.3251C22.0432 27.2974 21.0526 27.6594 20.292 28.337C20.1905 28.4234 20.1073 28.5291 20.0473 28.648C19.9873 28.767 19.9516 28.8967 19.9425 29.0296C19.9333 29.1625 19.9507 29.2959 19.9938 29.422C20.0369 29.5481 20.1048 29.6643 20.1934 29.7637C20.282 29.8632 20.3896 29.944 20.5099 30.0013C20.6302 30.0586 20.7607 30.0913 20.8937 30.0975C21.0268 30.1037 21.1598 30.0832 21.2849 30.0373C21.4099 29.9913 21.5245 29.9209 21.622 29.83C22.0015 29.4918 22.4956 29.3107 23.0038 29.3237C23.5121 29.3367 23.9963 29.5428 24.358 29.9L27.894 33.436C28.0815 33.6235 28.3358 33.7288 28.601 33.7288C28.8662 33.7288 29.1205 33.6235 29.308 33.436L32.837 29.9L34.251 31.315L35.666 32.729L31.423 36.972C31.0516 37.3435 30.6106 37.6381 30.1253 37.8392C29.64 38.0402 29.1198 38.1437 28.5945 38.1437C28.0692 38.1437 27.549 38.0402 27.0637 37.8392C26.5784 37.6381 26.1374 37.3435 25.766 36.972L21.523 32.729C21.4497 32.6501 21.3828 32.5655 21.323 32.476C21.1678 32.2608 20.9335 32.116 20.6716 32.0735C20.4098 32.0311 20.1417 32.0944 19.9265 32.2495C19.7113 32.4047 19.5665 32.639 19.524 32.9009C19.4815 33.1627 19.5448 33.4308 19.7 33.646C19.8234 33.8236 19.9612 33.9909 20.112 34.146L24.355 38.389C25.4802 39.5141 27.0063 40.1462 28.5975 40.1462C30.1887 40.1462 31.7148 39.5141 32.84 38.389L37.79 33.439L39.2 32.025C39.6392 31.5803 39.9669 31.0378 40.156 30.442C40.4651 30.3102 40.782 30.1976 41.105 30.105C41.288 31.0796 41.7097 31.9936 42.3324 32.7653C42.9551 33.537 43.7593 34.1424 44.6732 34.5273C45.587 34.9121 46.5821 35.0645 47.5692 34.9708C48.5564 34.877 49.5049 34.54 50.33 33.99C50.404 34.128 50.483 34.263 50.551 34.408L52.3 38.15C52.3526 38.2734 52.4294 38.3849 52.526 38.4779C52.6226 38.5709 52.7368 38.6436 52.862 38.6916C52.9873 38.7396 53.1208 38.7619 53.2548 38.7572C53.3889 38.7525 53.5205 38.7209 53.6421 38.6643C53.7636 38.6077 53.8726 38.5272 53.9624 38.4276C54.0522 38.3281 54.1211 38.2115 54.1649 38.0847C54.2088 37.958 54.2267 37.8238 54.2176 37.69C54.2085 37.5562 54.1726 37.4256 54.112 37.306L52.367 33.563C51.3403 31.3568 49.5431 29.6016 47.3132 28.6272C45.0834 27.6529 42.5744 27.5266 40.258 28.272C40.0957 27.579 39.7508 26.9421 39.2591 26.4274C38.7675 25.9127 38.147 25.539 37.4622 25.3451C36.7773 25.1513 36.0531 25.1442 35.3646 25.3248C34.6761 25.5054 34.0485 25.867 33.547 26.372L32.805 27.114L32.626 26.728L35.79 23.564C36.9134 22.4379 37.5443 20.9122 37.5443 19.3215C37.5443 17.7309 36.9134 16.2051 35.79 15.079L29.423 8.71101ZM6.62999 37.087L5.78399 35.275L9.40999 33.584L10.255 35.396L6.62999 37.087ZM26.61 21.425C26.3291 21.3875 26.0463 21.3668 25.763 21.363C26.4717 20.1144 26.7802 18.6785 26.647 17.249L28.716 19.318L26.61 21.425ZM28.074 26.875C27.9545 26.9306 27.8252 26.9617 27.6935 26.9666C27.5618 26.9715 27.4305 26.95 27.3073 26.9034C27.184 26.8568 27.0713 26.7861 26.9758 26.6953C26.8803 26.6046 26.8038 26.4957 26.751 26.375C26.6892 26.2448 26.6581 26.1021 26.66 25.958C26.6593 25.769 26.7128 25.5837 26.8141 25.4242C26.9155 25.2647 27.0605 25.1376 27.232 25.058L28.666 24.389C29.2268 24.8112 29.6912 25.3481 30.028 25.964L28.074 26.875ZM49.167 32.353C48.6217 32.7088 47.9974 32.9256 47.349 32.9845C46.7005 33.0433 46.0474 32.9423 45.447 32.6904C44.8465 32.4386 44.3169 32.0434 43.9044 31.5395C43.492 31.0357 43.2093 30.4384 43.081 29.8C44.2183 29.7706 45.349 29.983 46.3981 30.4231C47.4472 30.8632 48.391 31.521 49.167 32.353V32.353ZM37.787 27.782C37.9728 27.9677 38.1202 28.1883 38.2207 28.431C38.3213 28.6737 38.3731 28.9338 38.3731 29.1965C38.3731 29.4592 38.3213 29.7194 38.2207 29.9621C38.1202 30.2048 37.9728 30.4253 37.787 30.611L37.08 31.318L35.665 29.9L34.251 28.485L34.958 27.778C35.144 27.5925 35.3647 27.4454 35.6076 27.3452C35.8504 27.245 36.1106 27.1936 36.3733 27.1939C36.636 27.1943 36.8961 27.2464 37.1387 27.3473C37.3812 27.4482 37.6015 27.5959 37.787 27.782V27.782ZM34.373 22.146L31.7 24.818C31.0133 23.6403 29.9944 22.6914 28.771 22.09L30.836 20.025C31.0235 19.8375 31.1288 19.5832 31.1288 19.318C31.1288 19.0528 31.0235 18.7985 30.836 18.611L27.3 15.075L30.128 12.247L34.371 16.489C34.7426 16.8603 35.0374 17.3012 35.2386 17.7864C35.4398 18.2717 35.5435 18.7918 35.5436 19.3171C35.5438 19.8424 35.4405 20.3626 35.2397 20.848C35.0388 21.3334 34.7443 21.7744 34.373 22.146V22.146ZM25.181 10.126C25.556 9.75107 26.0647 9.54044 26.595 9.54044C27.1253 9.54044 27.6339 9.75107 28.009 10.126L28.716 10.833L25.888 13.661L25.181 12.954C24.806 12.579 24.5954 12.0703 24.5954 11.54C24.5954 11.0097 24.806 10.5011 25.181 10.126V10.126ZM13.434 17.512C13.1651 17.6375 12.8651 17.6805 12.5718 17.6355C12.2786 17.5904 12.0052 17.4594 11.7864 17.259C11.5676 17.0587 11.4131 16.7979 11.3425 16.5097C11.272 16.2215 11.2884 15.9189 11.3898 15.64C11.4913 15.3612 11.6731 15.1187 11.9124 14.9433C12.1516 14.7678 12.4376 14.6672 12.734 14.6543C13.0304 14.6413 13.324 14.7165 13.5777 14.8705C13.8313 15.0244 14.0336 15.2501 14.159 15.519C14.243 15.6974 14.2909 15.8906 14.2999 16.0875C14.3089 16.2844 14.2788 16.4812 14.2115 16.6665C14.1441 16.8517 14.0407 17.0218 13.9072 17.1669C13.7738 17.3121 13.613 17.4293 13.434 17.512V17.512ZM21.076 16.155C20.312 16.5115 19.4699 16.6676 18.6289 16.6086C17.7879 16.5497 16.9758 16.2776 16.269 15.818C16.2357 15.4219 16.1342 15.0346 15.969 14.673V14.673C15.637 13.9706 15.0794 13.3995 14.385 13.051C14.4201 12.9115 14.4855 12.7815 14.5766 12.6702C14.6677 12.5589 14.7822 12.469 14.912 12.407L21.256 9.44901L23.8 14.887L21.076 16.155ZM4.57799 30.32L11.769 26.967C12.168 27.1192 12.58 27.2346 13 27.312C12.2557 28.2181 11.7527 29.2977 11.5377 30.4504C11.3226 31.6031 11.4025 32.7915 11.77 33.905L10.8 31.833C10.7445 31.714 10.6661 31.607 10.5693 31.5182C10.4725 31.4295 10.3592 31.3607 10.2357 31.3157C10.1123 31.2708 9.98128 31.2506 9.85006 31.2563C9.71884 31.262 9.59003 31.2935 9.47099 31.349L4.93899 33.462L4.09399 31.649C4.03849 31.53 4.00698 31.4012 4.00127 31.2699C3.99556 31.1387 4.01575 31.0077 4.0607 30.8843C4.10564 30.7608 4.17446 30.6475 4.26322 30.5507C4.35198 30.4539 4.45894 30.3755 4.57799 30.32V30.32ZM32.941 44.837L30.941 44.662L36.728 41.962C36.908 43.2438 37.4977 44.4331 38.4091 45.3522C39.3205 46.2714 40.5047 46.8712 41.785 47.062L41.213 53.595L35.236 53.072L35.672 48.09C35.7067 47.697 35.6636 47.301 35.5451 46.9247C35.4265 46.5484 35.235 46.1992 34.9813 45.897C34.7276 45.5948 34.4168 45.3457 34.0667 45.1638C33.7166 44.9819 33.3341 44.8709 32.941 44.837ZM41.793 45.029C40.9052 44.8319 40.1111 44.3382 39.5416 43.6292C38.9721 42.9203 38.6611 42.0384 38.66 41.129C38.66 41.104 38.665 41.08 38.666 41.055L39.754 40.547C40.8924 41.7865 41.6066 43.3564 41.793 45.029V45.029ZM50.607 48.729L48.918 45.1L55.262 42.141C55.9833 41.806 56.808 41.7707 57.5553 42.0427C58.3027 42.3146 58.9117 42.8718 59.249 43.592L59.671 44.498L50.607 48.729Z" fill="white"/>
<path d="M15 55H14V54C14 53.7348 13.8946 53.4804 13.7071 53.2929C13.5196 53.1054 13.2652 53 13 53C12.7348 53 12.4804 53.1054 12.2929 53.2929C12.1054 53.4804 12 53.7348 12 54V55H11C10.7348 55 10.4804 55.1054 10.2929 55.2929C10.1054 55.4804 10 55.7348 10 56C10 56.2652 10.1054 56.5196 10.2929 56.7071C10.4804 56.8946 10.7348 57 11 57H12V58C12 58.2652 12.1054 58.5196 12.2929 58.7071C12.4804 58.8946 12.7348 59 13 59C13.2652 59 13.5196 58.8946 13.7071 58.7071C13.8946 58.5196 14 58.2652 14 58V57H15C15.2652 57 15.5196 56.8946 15.7071 56.7071C15.8946 56.5196 16 56.2652 16 56C16 55.7348 15.8946 55.4804 15.7071 55.2929C15.5196 55.1054 15.2652 55 15 55Z" fill="white"/>
<path d="M58 35C58.2652 35 58.5196 34.8946 58.7071 34.7071C58.8946 34.5196 59 34.2652 59 34V33H60C60.2652 33 60.5196 32.8946 60.7071 32.7071C60.8946 32.5196 61 32.2652 61 32C61 31.7348 60.8946 31.4804 60.7071 31.2929C60.5196 31.1054 60.2652 31 60 31H59V30C59 29.7348 58.8946 29.4804 58.7071 29.2929C58.5196 29.1054 58.2652 29 58 29C57.7348 29 57.4804 29.1054 57.2929 29.2929C57.1054 29.4804 57 29.7348 57 30V31H56C55.7348 31 55.4804 31.1054 55.2929 31.2929C55.1054 31.4804 55 31.7348 55 32C55 32.2652 55.1054 32.5196 55.2929 32.7071C55.4804 32.8946 55.7348 33 56 33H57V34C57 34.2652 57.1054 34.5196 57.2929 34.7071C57.4804 34.8946 57.7348 35 58 35Z" fill="white"/>
<path d="M21 52C21.5523 52 22 51.5523 22 51C22 50.4477 21.5523 50 21 50C20.4477 50 20 50.4477 20 51C20 51.5523 20.4477 52 21 52Z" fill="white"/>
<path d="M60 25C60.5523 25 61 24.5523 61 24C61 23.4477 60.5523 23 60 23C59.4477 23 59 23.4477 59 24C59 24.5523 59.4477 25 60 25Z" fill="white"/>
<path d="M43 26C43.5523 26 44 25.5523 44 25C44 24.4477 43.5523 24 43 24C42.4477 24 42 24.4477 42 25C42 25.5523 42.4477 26 43 26Z" fill="white"/>
<path d="M36 5C36.5523 5 37 4.55228 37 4C37 3.44772 36.5523 3 36 3C35.4477 3 35 3.44772 35 4C35 4.55228 35.4477 5 36 5Z" fill="white"/>
<path d="M5 52C5.55228 52 6 51.5523 6 51C6 50.4477 5.55228 50 5 50C4.44772 50 4 50.4477 4 51C4 51.5523 4.44772 52 5 52Z" fill="white"/>
<path d="M4 61C4.55228 61 5 60.5523 5 60C5 59.4477 4.55228 59 4 59C3.44772 59 3 59.4477 3 60C3 60.5523 3.44772 61 4 61Z" fill="white"/>
<path d="M50.99 24C51.449 24 51.9075 23.9716 52.363 23.915C53.7732 23.7367 55.1346 23.2831 56.37 22.58C56.4845 22.5157 56.5852 22.4294 56.6664 22.3261C56.7476 22.2229 56.8076 22.1046 56.8431 21.9781C56.8785 21.8517 56.8888 21.7194 56.8731 21.589C56.8575 21.4586 56.8163 21.3325 56.752 21.218C56.6876 21.1035 56.6014 21.0028 56.4981 20.9216C56.3948 20.8405 56.2766 20.7804 56.1501 20.7449C56.0236 20.7095 55.8914 20.6993 55.761 20.7149C55.6306 20.7305 55.5045 20.7717 55.39 20.836C54.5238 21.3249 53.5823 21.6662 52.604 21.846L52.99 19.146C53.0257 18.9012 52.9695 18.6518 52.832 18.446L51.46 16.388L52.447 15.895C52.6621 15.7871 52.8311 15.6053 52.9229 15.3828C53.0148 15.1604 53.0233 14.9123 52.947 14.684L52.306 12.758L56.2 11.98C56.3394 11.9522 56.4712 11.895 56.5867 11.8123C56.7022 11.7295 56.7988 11.6231 56.87 11.5001C56.9411 11.3771 56.9852 11.2403 56.9994 11.0989C57.0135 10.9575 56.9974 10.8147 56.952 10.68L56.388 9.00002H59.049C59.7904 10.5104 60.0969 12.1973 59.934 13.8719C59.7712 15.5465 59.1455 17.1428 58.127 18.482C58.0444 18.5859 57.9834 18.7052 57.9474 18.833C57.9115 18.9607 57.9013 19.0943 57.9174 19.226C57.9336 19.3577 57.9759 19.4849 58.0417 19.6001C58.1075 19.7154 58.1957 19.8163 58.3009 19.8972C58.4062 19.978 58.5264 20.0371 58.6547 20.0709C58.7831 20.1048 58.9168 20.1128 59.0483 20.0945C59.1797 20.0761 59.3061 20.0318 59.4203 19.9641C59.5344 19.8963 59.6339 19.8066 59.713 19.7C61.3532 17.5519 62.1451 14.8752 61.9377 12.1805C61.7304 9.48581 60.5382 6.96176 58.5887 5.0899C56.6392 3.21805 54.0688 2.12941 51.3679 2.03168C48.667 1.93394 46.0247 2.83396 43.945 4.56002C42.4235 5.82645 41.2763 7.48395 40.627 9.35402C40.0435 11.0114 39.8658 12.7844 40.1086 14.5246C40.3515 16.2648 41.0078 17.9214 42.0227 19.3557C43.0375 20.79 44.3814 21.9603 45.9416 22.7683C47.5018 23.5764 49.2329 23.9987 50.99 24V24ZM53.49 4.37302L52.39 4.78502L51.903 4.05702C52.4404 4.11423 52.9716 4.21999 53.49 4.37302V4.37302ZM42.516 10.011C43.0468 8.48293 43.9845 7.12863 45.228 6.09402C45.419 5.93502 45.628 5.80102 45.828 5.65902L48.361 7.76902C48.5649 7.93876 48.828 8.02053 49.0922 7.99634C49.3564 7.97215 49.6003 7.84398 49.77 7.64002C49.9397 7.43607 50.0215 7.17305 49.9973 6.90881C49.9731 6.64457 49.8449 6.40076 49.641 6.23102L47.729 4.64002C48.3163 4.40731 48.9263 4.23639 49.549 4.13002L51.168 6.55502C51.2593 6.69194 51.3831 6.80419 51.5282 6.88182C51.6733 6.95945 51.8354 7.00005 52 7.00002C52.1202 7.00027 52.2395 6.97858 52.352 6.93602L56.039 5.55402C56.6453 5.96698 57.1987 6.45259 57.687 7.00002H55C54.8416 7.00015 54.6855 7.03788 54.5446 7.11011C54.4037 7.18235 54.2819 7.28703 54.1894 7.41552C54.0968 7.54402 54.0361 7.69267 54.0122 7.84923C53.9883 8.00578 54.0019 8.16577 54.052 8.31602L54.693 10.242L50.8 11.02C50.6606 11.0478 50.5288 11.105 50.4133 11.1878C50.2977 11.2705 50.2012 11.377 50.13 11.5C50.0589 11.623 50.0147 11.7598 50.0006 11.9012C49.9865 12.0426 50.0026 12.1854 50.048 12.32L50.773 14.498L49.549 15.109C49.422 15.1724 49.31 15.2621 49.2204 15.3721C49.1307 15.4821 49.0656 15.61 49.0291 15.7471C48.9927 15.8843 48.9859 16.0276 49.0092 16.1676C49.0324 16.3076 49.0852 16.441 49.164 16.559L50.952 19.241L50.561 21.977C49.4138 21.9235 48.2876 21.6495 47.244 21.17L48.703 19.711C48.8905 19.5235 48.9958 19.2692 48.9958 19.004C48.9958 18.7389 48.8905 18.4846 48.703 18.297L46.283 15.877L47.828 13.559C47.9124 13.4323 47.9667 13.2879 47.9868 13.1369C48.0069 12.986 47.9923 12.8325 47.944 12.688L46.944 9.68802C46.9025 9.56327 46.8368 9.44791 46.7508 9.34853C46.6647 9.24915 46.5599 9.1677 46.4423 9.10883C46.3247 9.04996 46.1967 9.01481 46.0656 9.00541C45.9345 8.99601 45.8027 9.01253 45.678 9.05402C45.5532 9.09552 45.4379 9.16119 45.3385 9.24727C45.2391 9.33335 45.1577 9.43816 45.0988 9.55572C45.0399 9.67328 45.0048 9.80128 44.9954 9.93242C44.986 10.0636 45.0025 10.1953 45.044 10.32L45.888 12.856L44.16 15.449C44.0317 15.6414 43.9741 15.8723 43.9969 16.1024C44.0196 16.3325 44.1215 16.5476 44.285 16.711L46.586 19L45.486 20.1C43.9844 18.9516 42.8871 17.3552 42.3528 15.5419C41.8185 13.7285 41.875 11.7922 42.514 10.013L42.516 10.011Z" fill="white"/>
</svg>
